<?xml version="1.0" encoding="utf-8"?>
<!-- Generator: Adobe Illustrator 24.1.2, SVG Export Plug-In . SVG Version: 6.00 Build 0)  -->
<svg version="1.1" xmlns="http://www.w3.org/2000/svg" xmlns:xlink="http://www.w3.org/1999/xlink" x="0px" y="0px"
	 viewBox="0 0 800 402" style="enable-background:new 0 0 800 402;" xml:space="preserve">
<style type="text/css">
	.st0{fill:#FFCD76;}
	.st1{fill:#E6E2E3;}
	.st2{fill:#5C5D70;}
	.st3{fill:#EEB97C;}
	.st4{opacity:0.92;enable-background:new    ;}
	.st5{fill:#FFFFFF;}
	.st6{fill:none;stroke:#F4F4F4;stroke-width:6;stroke-miterlimit:10;stroke-dasharray:11.9174,11.9174;}
	.st7{opacity:0.92;fill:#FFFFFF;stroke:#F4F4F4;stroke-width:7;stroke-miterlimit:10;enable-background:new    ;}
	.st8{fill:#F4F4F4;}
	.st9{opacity:0.52;fill:#FFFFFF;}
	.st10{fill:#FF7300;}
	.st11{fill:#515051;}
	.st12{fill:#0099CC;}
	.st13{fill:#414C6D;}
	.st14{fill:#656A75;}
	.st15{fill:#F47B20;stroke:#F47B20;stroke-width:0.5;stroke-miterlimit:10;}
	.st16{fill:#F8CE83;}
	.st17{fill:#E79151;}
	.st18{fill:#EF7B30;}
	.st19{fill:#DF343B;}
	.st20{fill:#C66A26;}
	.st21{fill:#475B6B;}
	.st22{fill:none;stroke:#475B6B;stroke-width:3;stroke-miterlimit:10;}
	.st23{fill:#FF7300;stroke:#FF7300;stroke-width:0.75;stroke-miterlimit:10;}
	.st24{fill:#FF7300;stroke:#FF7300;stroke-miterlimit:10;}
	.st25{fill:none;stroke:#FF7300;stroke-width:2;stroke-miterlimit:10;}
	.st26{fill:#FFFFFF;stroke:#FF7300;stroke-width:2;stroke-miterlimit:10;}
	.st27{fill:#424D6E;}
	.st28{fill:#FF7300;stroke:#FFFFFF;stroke-width:2;stroke-miterlimit:10;}
	.st29{fill:none;stroke:#424D6E;stroke-width:3;stroke-miterlimit:10;}
	.st30{fill:#1C1E1F;}
	.st31{fill:none;stroke:#475B6B;stroke-width:3;stroke-linecap:round;stroke-miterlimit:10;}
	.st32{fill:none;stroke:#475B6B;stroke-width:4;stroke-miterlimit:10;}
	.st33{fill:#F2D8BE;}
	.st34{fill-rule:evenodd;clip-rule:evenodd;fill:#123544;}
	.st35{fill-rule:evenodd;clip-rule:evenodd;fill:#FFFFFF;}
	.st36{fill:#EDEDED;}
	.st37{fill:#123544;}
	.st38{fill:#958F92;}
	.st39{opacity:0.3;fill:#E1CCB7;}
	.st40{fill:#656A75;stroke:#656A75;stroke-width:2;stroke-miterlimit:10;}
	.st41{fill:#A5A5A5;}
	.st42{fill:none;stroke:#515051;stroke-miterlimit:10;}
	.st43{fill:none;stroke:#515051;stroke-miterlimit:10;stroke-dasharray:3.9863,3.9863;}
	.st44{fill:#FAA31A;}
	.st45{fill:#FFCD74;}
	.st46{fill:#FFCD77;}
	.st47{fill:none;stroke:#F47B20;stroke-miterlimit:10;}
	.st48{fill:none;stroke:#F47B20;stroke-linecap:round;stroke-linejoin:round;stroke-miterlimit:10;}
	.st49{fill:none;stroke:#414C6D;stroke-width:2;stroke-miterlimit:10;}
	.st50{fill:#303030;}
</style>
<g id="Layer_1">
	<circle class="st8" cx="404.3" cy="196.6" r="178.9"/>
	<circle class="st9" cx="404.3" cy="195.9" r="153.4"/>
	<path class="st16" d="M375.7,159.7v-28.4c0-5.4,4.4-9.8,9.8-9.8l0,0h44.9c5.4,0,9.8,4.4,9.8,9.8l0,0v28.4h17.8v-28.4
		c0-15.3-12.4-27.6-27.6-27.6h-44.9c-15.3,0-27.6,12.4-27.6,27.6v28.4L375.7,159.7z"/>
	<path class="st16" d="M337.9,168.5V262c0,13.4,10.8,24.2,24.2,24.2h91.9c13.4,0,24.2-10.8,24.2-24.2v-93.5H337.9z M420.3,255.4
		h-24.5l3.7-34c-7.5-4.7-9.7-14.6-4.9-22.1c4.7-7.5,14.6-9.7,22.1-4.9c7.5,4.7,9.7,14.6,4.9,22.1c-1.3,2-2.9,3.7-4.9,4.9
		L420.3,255.4z"/>
	<g>
		<path class="st21" d="M177.3,79.7c-2.2-4.4-5.3-8.3-9.2-11.3l-3.8-2.9c2.8-5.2,4.1-11,3.8-16.9c-0.4-6.2-2.6-12.1-6.3-17.1
			c-0.4-0.5-1.2-0.6-1.7-0.2c-0.5,0.4-0.6,1.2-0.2,1.7c2.3,3.1,4,6.6,4.9,10.3c-6.1-4.2-13.2-6.4-20.7-6.4c-7.4,0-14.4,2.1-20.4,6.2
			c1.4-5.3,4.3-10.1,8.3-13.9l8.2-7.6c2.2-2.1,5.7-2.1,7.9,0l8.2,7.6l0.1,0.1c0.5,0.5,1.3,0.4,1.7-0.1c0.5-0.5,0.4-1.3-0.1-1.7l0,0
			c0,0-0.1-0.1-0.1-0.1l-8.2-7.6c-3.1-2.9-8.1-2.9-11.2,0l-8.2,7.6c-5.3,4.9-8.7,11.5-9.8,18.5c-1,6.7,0.3,13.7,3.5,19.6l-3.8,2.9
			c-3.9,3-7,6.9-9.2,11.3c-2.2,4.4-3.3,9.3-3.3,14.2v5.1c0,0.7,0.5,1.2,1.2,1.2s1.2-0.5,1.2-1.2v-5.1c0-4.5,1.1-9.1,3-13.1
			s4.9-7.7,8.5-10.4l3.5-2.7l2.4,4.1c0.2,0.4,0.6,0.6,1,0.6c0.2,0,0.4-0.1,0.6-0.2c0.6-0.3,0.8-1.1,0.4-1.7l-3.1-5.2
			c-3.3-5.6-4.6-12.3-3.7-18.7l0.4-0.3c1.4-1.1,2.9-2,4.4-2.8l0.5,4c0.1,0.6,0.6,1.1,1.2,1.1c0,0,0.1,0,0.1,0
			c0.7-0.1,1.1-0.7,1.1-1.3l-0.6-4.8c4.4-2,9.1-3,14.1-3c4.9,0,9.7,1,14.1,3l-1.3,11.3c-0.6,5.1-3.3,9.6-7.5,12.6
			c-3.1,2.1-7.3,2.1-10.4,0c-4.2-2.9-7-7.5-7.5-12.6l-0.2-1.3c-0.1-0.7-0.7-1.1-1.3-1.1c-0.7,0.1-1.1,0.7-1.1,1.3l0.2,1.3
			c0.7,5.8,3.8,11,8.6,14.3c2,1.4,4.3,2,6.6,2c2.3,0,4.6-0.7,6.6-2c4.8-3.3,7.9-8.5,8.6-14.3l1.2-10.4c1.5,0.8,3,1.8,4.4,2.8
			l0.7,0.5c0.1,0.7,0.1,1.3,0.2,2c0.4,5.8-1,11.5-4,16.5l-3.1,5.2c-0.3,0.6-0.1,1.3,0.4,1.7c0.2,0.1,0.4,0.2,0.6,0.2
			c0.4,0,0.8-0.2,1-0.6l2.4-4.1l3.5,2.7c3.6,2.8,6.5,6.4,8.5,10.4s3,8.6,3,13.1v5.1c0,0.7,0.5,1.2,1.2,1.2s1.2-0.5,1.2-1.2v-5.1
			C180.6,89,179.4,84,177.3,79.7L177.3,79.7z"/>
		<path class="st21" d="M162.3,77.4h-4.1c-0.7,0-1.2,0.5-1.2,1.2s0.5,1.2,1.2,1.2h4.1c1.7,0,3.1,1.4,3.1,3.1v15.9
			c0,0.7,0.5,1.2,1.2,1.2c0.7,0,1.2-0.5,1.2-1.2V83C167.8,79.9,165.4,77.4,162.3,77.4z"/>
		<path class="st21" d="M153,77.4h-27.3c-3.1,0-5.5,2.5-5.5,5.5v15.9c0,0.7,0.5,1.2,1.2,1.2c0.7,0,1.2-0.5,1.2-1.2V83
			c0-1.7,1.4-3.1,3.1-3.1H153c0.7,0,1.2-0.5,1.2-1.2S153.7,77.4,153,77.4z"/>
		<path class="st21" d="M144,89.2c-4.8,0-8.7,3.9-8.7,8.7c0,0.3,0,0.7,0.1,1.1c0.1,0.7,0.7,1.1,1.4,1.1c0.7-0.1,1.1-0.7,1.1-1.4
			c0-0.3-0.1-0.5-0.1-0.8c0-3.5,2.8-6.3,6.3-6.3s6.3,2.8,6.3,6.3c0,0.3,0,0.5-0.1,0.8c-0.1,0.7,0.4,1.3,1.1,1.4c0.1,0,0.1,0,0.2,0
			c0.6,0,1.1-0.5,1.2-1.1c0-0.4,0.1-0.7,0.1-1.1C152.7,93.1,148.8,89.2,144,89.2L144,89.2z"/>
	</g>
	<line class="st22" x1="101.1" y1="99.5" x2="188.2" y2="99.5"/>
	<g>
		<path class="st21" d="M177.5,338.9c-3.7-7.5-9.1-14.2-15.7-19.3l-6.5-5c4.8-8.9,7-18.9,6.4-29c-0.7-10.6-4.4-20.7-10.8-29.2
			c-0.7-0.9-2-1.1-2.9-0.4c-0.9,0.7-1.1,2-0.4,2.9c4,5.3,6.8,11.2,8.5,17.5c-10.5-7.2-22.7-11-35.5-11c-12.6,0-24.6,3.7-34.9,10.6
			c2.4-9,7.4-17.3,14.3-23.7l14.1-13.1c3.8-3.5,9.8-3.5,13.6,0l14.1,13.1l0.2,0.2c0.8,0.8,2.2,0.7,2.9-0.1c0.8-0.8,0.7-2.2-0.1-2.9
			l-0.1-0.1c0,0-0.1-0.1-0.1-0.1l-14.1-13.1c-5.4-5-13.8-5-19.2,0L97,249.3c-9,8.3-14.9,19.6-16.7,31.7c-1.7,11.5,0.4,23.4,6,33.6
			l-6.4,5c-6.6,5.1-12.1,11.8-15.7,19.3c-3.7,7.5-5.6,15.9-5.6,24.3v8.7c0,1.1,0.9,2.1,2.1,2.1c1.1,0,2.1-0.9,2.1-2.1v-8.7
			c0-7.7,1.8-15.5,5.2-22.4c3.4-6.9,8.4-13.1,14.6-17.9l6-4.6l4.1,6.9c0.4,0.7,1.1,1,1.8,1c0.4,0,0.7-0.1,1.1-0.3
			c1-0.6,1.3-1.9,0.7-2.8l-5.3-9c-5.7-9.6-7.9-21-6.4-32.1l0.7-0.5c2.4-1.8,4.9-3.4,7.5-4.9l0.8,6.8c0.1,1.1,1,1.8,2.1,1.8
			c0.1,0,0.2,0,0.2,0c1.1-0.1,2-1.2,1.8-2.3l-1-8.3c7.5-3.4,15.6-5.1,24.1-5.1c8.4,0,16.6,1.8,24.1,5.1l-2.3,19.3
			c-1,8.7-5.7,16.5-12.9,21.5c-5.3,3.7-12.4,3.7-17.7,0c-7.2-5-11.9-12.8-12.9-21.5l-0.3-2.2c-0.1-1.1-1.2-2-2.3-1.8
			c-1.1,0.1-2,1.2-1.8,2.3l0.3,2.2c1.2,9.9,6.5,18.8,14.7,24.4c3.4,2.3,7.3,3.5,11.2,3.5c3.9,0,7.9-1.2,11.2-3.5
			c8.2-5.6,13.5-14.6,14.7-24.4l2.1-17.8c2.6,1.4,5.1,3,7.5,4.9l1.1,0.9c0.1,1.1,0.3,2.3,0.3,3.4c0.6,9.9-1.7,19.7-6.8,28.3l-5.3,9
			c-0.6,1-0.3,2.3,0.7,2.8c0.3,0.2,0.7,0.3,1.1,0.3c0.7,0,1.4-0.4,1.8-1l4.1-7l6.1,4.7c6.1,4.7,11.2,10.9,14.6,17.9
			s5.2,14.7,5.2,22.4v8.7c0,1.1,0.9,2.1,2.1,2.1s2.1-0.9,2.1-2.1v-8.7C183.1,354.8,181.1,346.4,177.5,338.9L177.5,338.9z"/>
		<path class="st21" d="M151.8,335.1h-7.1c-1.1,0-2.1,0.9-2.1,2.1c0,1.1,0.9,2.1,2.1,2.1h7.1c2.9,0,5.3,2.4,5.3,5.3v27.2
			c0,1.1,0.9,2.1,2.1,2.1s2.1-0.9,2.1-2.1v-27.2C161.3,339.4,157,335.1,151.8,335.1z"/>
		<path class="st21" d="M135.9,335.1H89.2c-5.2,0-9.5,4.3-9.5,9.5v27.2c0,1.1,0.9,2.1,2.1,2.1c1.1,0,2.1-0.9,2.1-2.1v-27.2
			c0-2.9,2.4-5.3,5.3-5.3h46.7c1.1,0,2.1-0.9,2.1-2.1C137.9,336,137,335.1,135.9,335.1z"/>
		<path class="st21" d="M120.5,355.3c-8.2,0-14.9,6.7-14.9,14.9c0,0.6,0,1.2,0.1,1.8c0.1,1.1,1.2,1.9,2.3,1.8c1.1-0.1,2-1.2,1.8-2.3
			c-0.1-0.5-0.1-0.9-0.1-1.3c0-5.9,4.8-10.7,10.7-10.7s10.7,4.8,10.7,10.7c0,0.4,0,0.9-0.1,1.3c-0.1,1.1,0.7,2.2,1.8,2.3
			c0.1,0,0.2,0,0.3,0c1,0,1.9-0.8,2.1-1.8c0.1-0.6,0.1-1.2,0.1-1.8C135.4,361.9,128.7,355.3,120.5,355.3L120.5,355.3z"/>
	</g>
	<line class="st22" x1="47.1" y1="372.8" x2="196.2" y2="372.8"/>
	<g>
		<path class="st21" d="M738.3,200.8c-2.7-5.6-6.8-10.6-11.7-14.4l-4.8-3.8c3.6-6.6,5.2-14.1,4.8-21.6c-0.5-7.9-3.3-15.5-8-21.8
			c-0.5-0.7-1.5-0.8-2.2-0.3c-0.7,0.5-0.8,1.5-0.3,2.2c3,3.9,5.1,8.4,6.3,13.1c-7.8-5.4-16.9-8.2-26.5-8.2c-9.4,0-18.3,2.7-26,7.9
			c1.8-6.7,5.5-12.9,10.6-17.7l10.5-9.8c2.8-2.6,7.3-2.6,10.1,0l10.5,9.8l0.1,0.1c0.6,0.6,1.6,0.6,2.2-0.1c0.6-0.6,0.6-1.6-0.1-2.2
			l-0.1-0.1c0,0-0.1-0.1-0.1-0.1l-10.5-9.8c-4-3.7-10.3-3.7-14.3,0l-10.5,9.8c-6.7,6.2-11.1,14.6-12.5,23.7
			c-1.3,8.6,0.3,17.4,4.5,25.1l-4.8,3.7c-4.9,3.8-9,8.8-11.7,14.4c-2.7,5.6-4.2,11.9-4.2,18.1v6.5c0,0.9,0.7,1.6,1.6,1.6
			c0.9,0,1.6-0.7,1.6-1.6v-6.5c0-5.8,1.3-11.6,3.9-16.7c2.5-5.2,6.3-9.8,10.9-13.3l4.5-3.5l3,5.2c0.3,0.5,0.8,0.8,1.3,0.8
			c0.3,0,0.5-0.1,0.8-0.2c0.7-0.4,1-1.4,0.6-2.1l-3.9-6.7c-4.2-7.2-5.9-15.7-4.8-23.9l0.5-0.4c1.8-1.4,3.6-2.6,5.6-3.6l0.6,5.1
			c0.1,0.8,0.8,1.4,1.5,1.4c0.1,0,0.1,0,0.2,0c0.9-0.1,1.5-0.9,1.4-1.7l-0.7-6.2c5.6-2.5,11.7-3.8,17.9-3.8c6.3,0,12.3,1.3,17.9,3.8
			l-1.7,14.4c-0.8,6.5-4.3,12.3-9.6,16c-4,2.7-9.3,2.7-13.2,0c-5.4-3.7-8.9-9.5-9.6-16l-0.2-1.7c-0.1-0.9-0.9-1.5-1.7-1.4
			c-0.9,0.1-1.5,0.9-1.4,1.7l0.2,1.7c0.9,7.4,4.9,14,10.9,18.2c2.5,1.7,5.4,2.6,8.4,2.6s5.9-0.9,8.4-2.6
			c6.1-4.2,10.1-10.8,10.9-18.2l1.6-13.3c1.9,1.1,3.8,2.3,5.6,3.6l0.9,0.7c0.1,0.8,0.2,1.7,0.2,2.5c0.5,7.4-1.3,14.7-5.1,21.1
			l-3.9,6.7c-0.4,0.7-0.2,1.7,0.6,2.1c0.2,0.1,0.5,0.2,0.8,0.2c0.5,0,1-0.3,1.3-0.8l3.1-5.2l4.5,3.5c4.6,3.5,8.3,8.1,10.9,13.3
			c2.5,5.2,3.9,11,3.9,16.7v6.5c0,0.9,0.7,1.6,1.6,1.6c0.9,0,1.6-0.7,1.6-1.6v-6.5C742.5,212.7,741,206.4,738.3,200.8L738.3,200.8z"
			/>
		<path class="st21" d="M719.1,198h-5.3c-0.9,0-1.6,0.7-1.6,1.6c0,0.9,0.7,1.6,1.6,1.6h5.3c2.2,0,4,1.8,4,4v20.2
			c0,0.9,0.7,1.6,1.6,1.6c0.9,0,1.6-0.7,1.6-1.6v-20.2C726.2,201.2,723,198,719.1,198z"/>
		<path class="st21" d="M707.2,198h-34.8c-3.9,0-7.1,3.2-7.1,7.1v20.2c0,0.9,0.7,1.6,1.6,1.6c0.9,0,1.6-0.7,1.6-1.6v-20.2
			c0-2.2,1.8-4,4-4h34.8c0.9,0,1.6-0.7,1.6-1.6C708.8,198.7,708.1,198,707.2,198z"/>
		<path class="st21" d="M695.8,213c-6.1,0-11.1,5-11.1,11.1c0,0.4,0,0.9,0.1,1.4c0.1,0.9,0.9,1.5,1.7,1.3c0.9-0.1,1.5-0.9,1.3-1.7
			c0-0.3-0.1-0.7-0.1-1c0-4.4,3.6-8,8-8s8,3.6,8,8c0,0.3,0,0.6-0.1,1c-0.1,0.9,0.5,1.6,1.3,1.7c0.1,0,0.1,0,0.2,0
			c0.8,0,1.4-0.6,1.5-1.4c0.1-0.5,0.1-0.9,0.1-1.4C706.9,218,701.9,213,695.8,213L695.8,213z"/>
	</g>
	<line class="st22" x1="641.1" y1="226.1" x2="752.2" y2="226.1"/>
	<rect x="433.4" y="227.5" class="st12" width="22.6" height="5.3"/>
	<rect x="464.3" y="227.5" class="st12" width="13.5" height="5.3"/>
	<path class="st12" d="M495.9,190.6h-12.4c-2.1,0-4.2-1-5.4-2.8c-1.2-1.8-1.5-4-0.8-6c1.8-5.2,2.8-10.7,2.8-16.3
		c0-26.9-21.9-48.8-48.8-48.8h-0.1c-16.9,0.4-32.3,9.7-40.5,24.6c-1,1.5-2.5,2.6-4.3,3c-1.8,0.4-3.7,0-5.2-1.1
		c-7-5-15.2-7.8-23.8-8.1h-0.1c-21.8,0-39.6,17.8-39.6,39.6v9.2c0,3.6-3,6.6-6.6,6.6c-11.7,0.1-21,9.7-20.9,21.4
		c0.1,11.5,9.4,20.7,20.9,20.9h72.1v-5.3h-72.1c-8.7-0.1-15.7-7.3-15.6-16c0.1-8.6,7-15.5,15.6-15.6c6.6,0,11.9-5.3,11.9-11.9v-9.2
		c0-18.9,15.3-34.3,34.3-34.3c7.5,0.2,14.8,2.7,20.9,7.1c2.7,1.9,6.1,2.6,9.4,1.9h0c3.2-0.7,5.9-2.7,7.6-5.4l0.1-0.2
		c7.2-13.2,20.9-21.5,35.9-21.9c24,0,43.5,19.5,43.5,43.5c0,5-0.9,9.9-2.5,14.6c-1.3,3.6-0.7,7.6,1.4,10.8l0,0.1
		c2.3,3.1,5.9,4.9,9.7,5h12.5c8.7-0.1,15.9,6.9,16,15.6s-6.9,15.9-15.6,16c-0.1,0-0.3,0-0.4,0h-9.9v5.3h9.9
		c11.7,0.1,21.2-9.2,21.4-20.9s-9.2-21.2-20.9-21.4C496.2,190.6,496,190.6,495.9,190.6L495.9,190.6z"/>
	<path class="st10" d="M462.7,232.7v-7.2c0-1.4,1.1-2.5,2.5-2.5l0,0h11.4c1.4,0,2.5,1.1,2.5,2.5l0,0v7.2h4.5v-7.2c0-3.9-3.1-7-7-7
		h-11.4c-3.9,0-7,3.1-7,7v7.2L462.7,232.7z"/>
	<path class="st10" d="M453.1,235v23.7c0,3.4,2.7,6.1,6.1,6.1h23.3c3.4,0,6.1-2.7,6.1-6.1V235H453.1z M473.9,257h-6.2l0.9-8.6
		c-1.9-1.2-2.5-3.7-1.2-5.6c1.2-1.9,3.7-2.5,5.6-1.2c1.9,1.2,2.5,3.7,1.2,5.6c-0.3,0.5-0.7,0.9-1.2,1.2L473.9,257z"/>
	<g>
		<path class="st21" d="M388.2,189.5h-11.3l-1.3,3.7c0,0.1-0.2,0.2-0.4,0.2H369c-0.4,0-0.6-0.2-0.4-0.5l13.6-35
			c0.1-0.3,0.7-0.3,0.9,0l13.6,35c0.1,0.3,0,0.5-0.4,0.5h-6.2c-0.1,0-0.3-0.1-0.4-0.2L388.2,189.5z M379.1,183.6h7l-3.5-10.4
			L379.1,183.6z"/>
		<path class="st21" d="M423.9,169.1c0,10.2-10.9,10.3-11.8,10.3H407v13.7c0,0.2-0.1,0.4-0.4,0.4h-5.7c-0.2,0-0.4-0.2-0.4-0.4V159
			c0-0.2,0.2-0.4,0.4-0.4h11.3C413.5,158.6,423.9,158.8,423.9,169.1z M417.3,169.1c0-3.9-4.4-4.1-5.2-4.1H407v8h5.2
			C413,173,417.3,172.9,417.3,169.1z"/>
		<path class="st21" d="M437.6,164.5v22.9h3.5c0.3,0,0.5,0.2,0.5,0.4v5.2c0,0.2-0.2,0.4-0.5,0.4h-13.7c-0.3,0-0.5-0.2-0.5-0.4v-5.2
			c0-0.2,0.2-0.4,0.5-0.4h3.5v-22.9h-3.3c-0.3,0-0.5-0.2-0.5-0.4V159c0-0.2,0.2-0.4,0.5-0.4h13.3c0.3,0,0.5,0.2,0.5,0.4v5.2
			c0,0.2-0.2,0.4-0.5,0.4H437.6z"/>
	</g>
	<polygon class="st21" points="406.3,251.8 406.3,203.2 391.7,215.6 398.2,215.6 398.2,252.4 405.8,252.4 	"/>
	<polygon class="st21" points="409,203.7 409,252.4 423.6,239.9 417.1,239.9 417.1,203.2 409.6,203.2 	"/>
</g>
<g id="Layer_2">
</g>
</svg>
